<?xml version="1.0" standalone="no"?>
<!DOCTYPE svg PUBLIC "-//W3C//DTD SVG 20010904//EN"
 "http://www.w3.org/TR/2001/REC-SVG-20010904/DTD/svg10.dtd">
<svg version="1.0" xmlns="http://www.w3.org/2000/svg"
 width="500.000000pt" height="500.000000pt" viewBox="0 0 500.000000 500.000000"
 preserveAspectRatio="xMidYMid meet">
<metadata>
Created by potrace 1.11, written by Peter Selinger 2001-2013
</metadata>
<g transform="translate(0.000000,500.000000) scale(0.100000,-0.100000)"
fill="#000000" stroke="none">
<path d="M2285 4990 c-11 -4 -23 -6 -27 -4 -3 2 -39 -1 -80 -6 -40 -6 -84 -13
-98 -15 -54 -7 -178 -36 -245 -55 -38 -12 -90 -27 -115 -34 -134 -39 -364
-145 -524 -243 -259 -158 -544 -419 -708 -648 -80 -113 -108 -155 -108 -164 0
-5 -4 -11 -8 -13 -14 -5 -94 -155 -164 -308 -30 -64 -122 -332 -132 -380 -3
-14 -14 -65 -24 -115 -11 -49 -23 -112 -26 -140 -4 -27 -10 -77 -14 -110 -14
-123 -6 -554 13 -607 2 -7 6 -31 9 -53 4 -43 5 -46 36 -180 61 -265 188 -557
343 -790 202 -305 491 -582 792 -762 200 -119 399 -208 580 -258 33 -9 67 -19
75 -22 8 -3 21 -7 29 -9 7 -1 34 -7 60 -13 25 -6 60 -13 76 -16 17 -3 39 -7
50 -9 98 -19 241 -30 400 -31 168 0 358 10 374 20 3 1 29 5 56 8 28 3 57 8 65
11 8 3 29 7 45 10 98 16 210 50 450 139 59 21 228 108 328 168 370 223 692
560 906 949 22 41 45 85 51 98 10 23 42 96 65 147 55 124 131 395 151 538 2
15 6 39 9 55 26 140 26 561 0 707 -3 17 -8 46 -11 65 -6 35 -14 77 -18 95 -1
6 -9 37 -16 70 -16 72 -13 60 -30 115 -7 25 -14 47 -15 50 -14 52 -37 116 -46
126 -6 8 -9 14 -6 14 9 0 -69 175 -129 287 -79 150 -150 255 -292 436 -23 29
-260 266 -297 297 -115 97 -288 215 -420 286 -49 27 -92 49 -95 50 -3 0 -39
16 -80 36 -41 19 -111 47 -155 62 -44 15 -87 31 -95 35 -19 10 -242 68 -295
76 -22 4 -49 9 -60 10 -11 2 -40 7 -65 10 -25 4 -56 9 -70 12 -42 8 -474 11
-495 3z m-2091 -2776 c3 -8 2 -12 -4 -9 -6 3 -10 10 -10 16 0 14 7 11 14 -7z
m12 -94 c0 -12 -4 -16 -9 -11 -5 5 -6 14 -3 20 10 15 12 14 12 -9z m4591 -22
c-3 -8 -6 -5 -6 6 -1 11 2 17 5 13 3 -3 4 -12 1 -19z m-4577 -43 c0 -5 -5 -3
-10 5 -5 8 -10 20 -10 25 0 6 5 3 10 -5 5 -8 10 -19 10 -25z m4575 16 c3 -5 2
-12 -3 -15 -5 -3 -9 1 -9 9 0 17 3 19 12 6z m-12 -46 c-3 -9 -8 -14 -10 -11
-3 3 -2 9 2 15 9 16 15 13 8 -4z m-4555 -30 c-3 -3 -9 2 -12 12 -6 14 -5 15 5
6 7 -7 10 -15 7 -18z m4544 -25 c-2 -17 -8 -32 -12 -35 -7 -5 -5 18 6 53 7 23
11 12 6 -18z m-4535 -12 c-3 -8 -6 -5 -6 6 -1 11 2 17 5 13 3 -3 4 -12 1 -19z
m14 -44 c5 -15 8 -29 5 -31 -2 -2 -8 10 -14 26 -13 38 -5 41 9 5z m4489 -59
c-10 -33 -19 -53 -19 -44 -1 18 30 112 35 107 2 -2 -5 -31 -16 -63z m-4455
-59 c8 -25 12 -46 9 -46 -5 0 -18 34 -28 75 -11 45 3 23 19 -29z m4430 -28
c-4 -13 -25 -70 -48 -128 -119 -301 -302 -575 -535 -802 -250 -242 -495 -400
-807 -520 -107 -41 -329 -102 -412 -113 -15 -2 -28 -4 -28 -5 0 -2 -27 -6
-110 -15 -38 -4 -83 -9 -100 -11 -42 -5 -301 -4 -350 1 -167 16 -189 19 -313
45 -342 71 -691 236 -962 454 -112 90 -243 217 -331 321 -19 22 -42 49 -52 60
-72 79 -301 468 -315 533 -1 7 -12 33 -23 58 -12 25 -19 47 -16 51 4 3 10 -3
13 -13 51 -144 120 -278 227 -444 71 -108 66 -102 142 -195 238 -290 546 -522
882 -666 165 -70 373 -134 503 -153 19 -3 46 -8 60 -11 64 -14 171 -20 365
-20 242 0 258 2 515 51 58 11 237 67 323 100 299 115 557 285 798 524 239 237
411 500 530 808 40 103 59 144 44 90z m-4405 -43 c0 -8 -2 -15 -4 -15 -2 0 -6
7 -10 15 -3 8 -1 15 4 15 6 0 10 -7 10 -15z"/>
</g>
</svg>
