<?xml version="1.0" encoding="utf-8"?>
<!-- Generator: Adobe Illustrator 16.0.0, SVG Export Plug-In . SVG Version: 6.00 Build 0)  -->
<!DOCTYPE svg PUBLIC "-//W3C//DTD SVG 1.1//EN" "http://www.w3.org/Graphics/SVG/1.1/DTD/svg11.dtd">
<svg version="1.1" id="Layer_1" xmlns="http://www.w3.org/2000/svg" xmlns:xlink="http://www.w3.org/1999/xlink" x="0px" y="0px"
	 width="1000px" height="1000px" viewBox="0 0 1000 1000" enable-background="new 0 0 1000 1000" xml:space="preserve">
<path fill="#FFFFFF" d="M923.303,492.02l-4.049-2.439l-2.068-0.614l-1.005,0.449l-2.146,2.243l-1.269,0.537h-4.937l-2.068-0.547
	l-2.244-1.258l-1.863-1.815l-0.819-2.058l0.098-1.893l0.537-0.712l2.243-0.537l1.161-0.556l0.361-0.253l0.458-0.449l0.254-0.722
	l-0.088-0.722l0.088-0.615l0.722-0.546v-0.546l-5.492,1.532l-2.518-0.458l0.195-2.976h0.537l0.819,0.458l0.888-0.712l1.005-1.073
	l1.063-0.546l0.917-0.186l2.526-1.161l0.693-0.556l-0.898-0.537l-0.175,0.088l-0.361,0.361l-0.995-1.259l-7.278,3.229l-3.951,0.995
	l-4.039,0.361l-2.233,0.625l-4.312,2.868L881,481.024l-0.722,0.098l-1.425-0.098l-0.283,0.195l-0.438,0.791l-0.273,0.195
	l-1.054,0.264l-0.819,0.634l-0.8,0.8l-1.005,0.8l-2.166,1.073l-0.536,0.088l-0.469,0.478l-1.425,1.717l-0.272,0.186l-0.254,0.448
	l-1.717,1.718l-0.361,0.097l-0.8-0.194l-0.361,0.098l-0.186,0.253l-0.546,1.171l-0.264,0.449l-2.244,2.429l-1.161,0.995
	l-1.258,0.459l-1.435,0.176l-1.073,0.556l-3.502,3.775l-1.259,0.801l-1.502,0.36l-5.132,3.239l-0.439,1.356l-0.088,1.883
	l0.352,1.619l1.259,1.063l0.614,1.619l0.712,0.537l0.449-0.088l1.98-1.171l0.36,0.897l0.439,0.273l0.556-0.361l0.537-0.81
	l1.883,1.971l-0.614,0.371l-0.273,0.624l0.195,0.702l0.185,0.195l1.366,2.322l1.961-0.254l1.814-1.893l0.81-2.517l0.995-1.063
	l4.586-2.615l1.521-0.556l1.883,0.556l2.43,1.425l2.059,1.883l0.819,1.883l-1.073,2.234l-0.195,1.531l1.083,0.615l0.703,5.054
	l1.814,2.233l2.761,1.073l6.303,0.449l0.722-0.098l1.063-0.449l0.897-0.087l0.624,0.185l1.073,0.898l0.713,0.185l0.546,0.361
	l0.186,0.8l0.195,1.083l0.36,0.81l0.449,0.352l1.073,0.556l0.438,0.342l1.98,2.897l0.264,0.342l0.625-0.264l0.614-0.439l0.264-0.272
	l0.546-0.907l2.771-2.322l6.566-4.049l2.243-2.42l1.161-3.785l0.264,0.264l0.722,0.459l0.625-5.112l2.234-4.4l2.975-3.6l2.879-2.674
	l-0.566-1.473l0.264-1.425l0.8-1.063l1.161-0.458l1.015-0.537l0.702-1.278l1.006-2.604L925,496.771l0.205-0.536l0.438-0.361
	l0.098-0.546l-0.098-0.723l-0.263-0.722l-0.098-0.712l0.448-0.985L923.303,492.02z M792.58,553.103l0.342-0.819l-0.536-0.615
	l-0.625-0.448l-0.8-0.176l-1.269,0.176l-0.458-0.176l-1.161-1.005l-0.985-0.098l-0.995,0.449l-0.634,0.897l-1.522-0.244
	l-1.971,0.526l-1.98,1.005l-1.425,1.151l-0.819-0.536l-1.434,1.073l-0.625-0.625h-0.438l-1.718,1.883l-1.063,0.908l-0.994,0.351
	l-0.801,1.005v2.146l0.615,3.863h-1.718l-0.702,0.195l-0.556,0.439l-0.801-0.537l-0.8,0.098l-0.731,0.439l-0.614,0.556l0.614,1.063
	l-0.264,1.356l-0.888,2.165l0.264,1.708l0.8,0.995l2.244,1.521l0.448-1.161l1.161-0.36l1.171,0.36l0.537,1.161l0.722-0.176h0.098
	l0.263,0.098h0.449l1.073-0.468l1.249,1.005l1.365,1.258l1.249,0.615l0.565-2.332l0.801-1.961l0.985-1.717l1.171-1.522l0.263,0.361
	l0.459,0.439l0.263,0.36l0.801-0.995l1.971-1.063l0.907-0.722l2.244-3.415l2.507-1.619l0.361-0.546l0.186-1.435l0.614-1.161
	l1.005-0.722l1.171-0.098l-1.171-3.054L792.58,553.103z M988.181,479.336l-1.542-2.517l-0.243-1.346l-0.371-1.532l-0.888-0.263
	l-1.181,0.107l-1.063-0.556l1.259-0.537l0.107-1.356l-0.635-1.522l-0.702-0.995l-0.557-0.263l-1.062-0.195l-0.361-0.195
	l-0.722-0.703l-0.352-0.458l-0.448-0.722l-1.981-1.347L977,464.312l0.264-1.258l-0.459-0.537l-0.458,0.351l0.097,1.356l-0.702,1.063
	l-0.595,0.663l-0.439,0.264l-0.468-0.352l-0.088-0.722l0.195-0.615l0.185-0.273l-1.609-1.259l-0.273-0.81l-0.186-1.073l-0.81,0.458
	l-1.161,0.985l-1.004,0.458l-0.801,0.088l-2.878-0.088l-6.917,0.712l-1.717-0.712l-4.946,1.073l-0.897,1.161l-0.186,1.063
	l-0.264,0.458v0.459l0.702,1.063l0.625,0.556l1.424,0.537l0.547,0.546l-0.79,0.8l-0.273,1.259l-0.088,1.356l-0.273,1.073
	l2.791,0.985l5.121-0.985h2.879l2.419,0.985l11.591,7.639l5.033,2.517l3.698-0.439l0.175-6.117l0.635,0.351l0.526,0.468l0.449,0.537
	l0.273,0.546h0.458L988.181,479.336z M785.829,589.941l-1.434-1.347l-3.493-4.946l-0.195-0.175v-0.195l-0.088-0.098h-0.272
	l-0.264,1.424l-0.712,1.073l-1.073,0.907l-0.361-0.556l-0.624,0.361l-0.439,0.614l0.254,0.361l0.546,0.36v0.713l-0.36,0.819
	l-0.342,0.614h0.439l-0.439,0.625l0.439,1.424l0.263,0.459l0.547-0.098l2.067-1.063l0.723-0.557l0.81-0.263h1.171l4.137,2.165
	l2.409,0.713l1.718-0.995l0.088-1.971l-1.806-0.547L785.829,589.941z M817.731,238.088l1.61,0.263h0.185l0.723-0.175l0.253-0.088
	l-0.8-1.347l-0.731-1.619l-0.702-1.073l-0.8,0.351l-0.82,1.708l0.098,1.258L817.731,238.088z M624.181,681.317l1.434,1.717
	l-1.005-3.327l0.088-2.166l0.635-1.971l-0.361-0.536l-0.459-0.917l-0.263-0.342l-0.088-0.205v-0.253l-0.088-0.195h-0.342
	l0.264,2.517l-0.098,2.976L624.181,681.317z M851.332,326.858l1.424-1.522l14.459-6.653l9.238-5.932l0.742-0.175h0.8l0.624-0.186
	l0.264-0.722l0.088-0.634l1.073-0.985l0.342-0.176l0.722-0.273l0.536-0.546l0.459-0.615l0.556-0.546l0.703-0.263l2.233-0.361
	l2.801-1.171l9.59-7.103l3.795-3.951l5.288-3.317l1.181-1.258l0.888-2.429l1.814-3.054l0.254-1.893l-0.352-0.722l-1.346-1.083
	l-0.273-0.537l-0.098-0.624l-0.332-1.99l-0.254-0.634l-0.458-1.522l0.273-1.98l0.088-2.156l-0.907-2.068l-0.986-0.8l-2.438-1.532
	l-1.161-1.258l-0.459-1.708l0.107-2.332l0.615-3.6l0.8-2.068l0.897-0.722l7.024,0.264l1.161,0.546l0.575-0.956l0.625-0.546
	l0.546-0.712l0.264-1.444l0.264-0.985l1.697-3.415l-1.697-1.171l-0.907-0.185l-0.713,0.722h-0.458l-0.897-1.346l-1.718,0.088
	l-1.609,0.263l-0.702-0.722l-0.273-0.888l-1.249-2.068l-0.361-1.259v-1.171l0.361-2.156l-4.858,0.81l-1.883,0.088l-1.805-0.186
	l-1.425-0.449l-0.917-0.546l-0.702-0.712l-0.557-0.897l-0.438-1.073l-0.459-0.088l-2.078-0.088l-0.702-0.185l-1.249,0.81
	l-2.341-0.897l-2.322,1.795l-1.161,0.186h-1.259l-1.17,0.088l-1.171,0.634l-2.156,2.068l-1.161,0.722l-1.522,0.263l-2.78-0.449
	l-1.434,0.088l-1.269,0.625l-3.054,2.341l-0.547,0.81l0.615,1.795l0.897,0.995v0.449l-1.883,0.088l-1.61-0.264l-3.316-1.083h-1.366
	l-0.536,0.537l-0.625,1.629l-0.458,0.439h-0.712l-0.801-0.263l-1.434-0.81l-1.356-0.361l-1.356-1.073l-1.062-1.532l-0.557-1.522
	h-1.151l-2.233-0.449l-4.146-1.98l-0.908-0.722l-1.98-1.073l-2.233,0.273l-4.4,1.346l-3.414-0.439l-1.181,0.537l-0.361,0.546
	l-0.536,1.434l-0.361,0.546l-1.707,1.346l-1.151,1.259l-0.829,0.546l-1.151,0.263l-1.883,0.176l-0.995-0.176l-0.907-0.536
	l-1.435-1.181l-0.702-1.522l-0.917-3.59l-0.985-1.629l-1.073-0.537l-1.356-0.088l-1.717-0.361l-4.039-2.78l-1.522-0.625
	l-4.399-0.634l-1.356-0.537v-0.263l-0.088-0.273l-0.185-0.176l-0.195-0.088l-0.713,0.81l-0.81,0.361h-0.907l-0.8-0.273l-0.205-0.263
	l-0.176-0.088l-0.194,0.088l-0.254,0.263l-0.81,2.615l-2.322,0.995l-4.508,0.625l-0.351,0.449l-0.264,0.537l-0.459,0.546l-0.8,0.449
	l-0.536,0.088l-4.322-0.537l-0.8-0.634v-1.161l-2.068-3.239l1.181-0.546l0.438-0.088l1.435-0.995l-0.254-1.522l-1.277-1.083
	l-1.601,0.186l0.254-1.083l1.161-2.068v-0.39l-0.615-0.439l0.098-0.897l0.361-0.995l0.342-0.625l-1.054-1.347l-1.181-3.327
	l-1.347-1.883l-1.259-2.244l-0.624-0.361h-0.624l-0.361-0.361l0.264-1.346l-1.708-0.459h-8.79l-2.42,0.81l-0.819-0.088l-1.258-0.897
	l-0.723-1.346l-0.536-1.532l-0.723-1.347l-1.258-1.17l-1.522-0.449l-6.116-0.449l-0.527-0.361l-1.171-0.985l-0.614-0.273
	l-0.732,0.273l-0.614,0.537l-0.722,0.361l-0.819-0.361l-1.151-1.073l-0.635-0.449l-2.155-0.8l-3.054-1.805l-1.259-0.185
	l-1.356,0.088l-1.258-0.273l-2.43-0.985l-1.259-0.088l-1.98,0.186l-1.609,0.624l-0.361,1.444l0.195,2.059l-1.005,2.692l0.81,1.083
	l-0.546,0.449l-0.264,0.439l-0.449,0.995l0.995,0.361l0.897,1.083l0.459,1.424l-0.098,1.629l-0.614,0.985l-0.907,0.361l-2.518-0.361
	l-8.888,0.264l-1.181-0.537l-2.683,0.722l-1.435,0.088l-1.424-0.273l-0.361-0.361l-0.088-0.361v-0.449l-0.186-0.361l-1.971-1.708
	l-1.269,0.439l-1.277,1.259l-1.98,2.79l-1.063,0.186l-1.063-1.356l-1.521-2.692l-1.171-0.546l-3.785-0.985l-1.161,0.176
	l-1.356,0.897l-4.41,0.634l-5.482,2.059l-2.518,0.263l-2.79-1.073l-0.448-0.449l-0.361-0.537l-0.546-0.449l-0.897-0.273
	l-0.723-0.351l-0.186-0.634l-0.088-0.722l-0.458-0.537l-1.161-0.995l-0.907-1.444l-0.448-1.698l0.185-1.707l-1.259,0.546
	l-2.067,0.537l-1.884-0.264l-0.8-1.795l-4.302-2.615l-1.073-0.985l-0.361,0.985l-0.546,0.722l-0.537,0.176l-0.634-0.605
	l-3.415,2.693l-1.717,0.985l-2.166,0.186l-3.863-1.795h-1.814l-0.088,2.332l-0.596,0.176l-1.16,0.81l-0.547,0.088l-0.712-0.449
	v-0.546l0.098-0.634l-0.459-0.537l-0.254-0.088h-1.17l-0.459-0.186v-0.361l0.195-0.449l-0.117-0.429l-2.771-3.678l-1.278-1.083
	l-2.409-1.522l-0.713-0.088l-0.722,0.088l-0.712-0.088l-0.713-0.722l-0.37-0.897l0.106-0.537l0.264-0.449v-0.722l-1.355-3.415
	l-1.883-0.634l-5.493,0.995l-5.658-0.449l-2.684-0.897l-2.517-1.883l-0.907-0.985l-1.171-0.361l-2.518-0.273l-0.536-0.449
	l-1.181-0.722l-0.614-0.263l-2.683,0.263l-2.361-1.883l-2.4-1.346l-4.137-0.722l-1.365-0.81l-1.171-1.444l-0.361-1.347l0.557-1.258
	l1.521-1.259l-1.619-0.449l-1.62,0.625l-1.258,1.346l-0.547,1.98l-0.186,2.507l-0.624,1.356l-1.259,0.449l-1.98-0.176l-1.707-0.449
	l-1.619-0.897l-1.259-1.434l-0.907-2.156l0.624-0.81l2.976-3.142l0.897-1.249l1.083-3.063l0.801-3.863l-0.264-3.59l-2.078-2.156
	h-0.878l-0.819,0.273l-0.801,0.088l-2.985-1.532l-2.233-0.625h-1.435l-1.073,0.625l-0.537,1.708l-0.448,0.897l-0.81,0.449
	l-0.897,0.088l-0.819-0.088l-0.898-0.449l-0.36-0.449l-0.557-1.708l-0.087-0.897l0.185-0.546v-0.458l-0.702-0.546l-1.356-0.625
	l-0.614-0.087l-1.435,0.624l-1.521,0.176l-0.819,0.458l-0.801,0.088l-0.351-0.81l-0.273-1.883l-0.888-1.171l-2.068-0.985v-1.17
	l0.088-2.068l0.449-2.693l-1.259-0.722l-2.615,1.346l-2.683,2.429l-2.888,1.356l0.458,0.439l0.615,0.722l0.458,0.264l-0.995,0.722
	l-0.556-0.449l-0.536-0.985l-0.898-0.722h-1.082l-0.801,0.371l-1.619,1.073l-5.054,1.883l-1.522,0.195l-0.897,0.264l-2.058,1.62
	l-0.547-0.186l-0.205-0.449l-0.176-0.449l-0.36-0.176l-0.449,0.088l-0.351,0.264l-0.264,0.185l-0.195,0.088l-0.897-0.263
	l-0.585-0.732l-0.547-0.712l-0.449-0.361l-0.8,0.088l-2.341,0.634l-3.142,0.361l-3.054-0.361l-2.878-0.898l-6.917-3.239
	l-1.347-2.156l-1.619-0.625l-3.054-0.634l-4.137-1.795l-2.244-0.449l-0.81-0.361l-0.81-0.273l-0.811,0.185l-0.351,0.361
	l-0.088,0.537v0.537l-0.098,0.449l-0.546,1.795l-0.273,0.371l-0.264-2.068l-0.8-2.429l-0.634-1.073l-1.425-1.434l-1.542-1.093
	l-0.907-0.175l-1.248,0.449l-1.532,0.625l-3.424,0.371l-3.679-0.186l-1.805,0.186l-1.161,0.712v0.634h0.449v1.249l-1.171,0.371
	l-3.142,1.883l-0.81,0.985l-0.995,0.273l-0.352,0.439v0.371l0.449,0.722l0.264,1.17l0.819,2.332v0.722l-3.503-3.054l-2.244-1.444
	l-1.619,1.259l-1.355-0.186l-3.229-0.995l-1.62-1.883l-0.712-0.449l-0.907-0.175l-3.239-1.258l-4.39-0.634l-3.425-1.161
	l-0.985-0.186l-2.166,0.625l-0.995-0.088l-0.8-1.161l-0.995,1.795l-0.624-0.449l-0.811-1.073l-1.434-0.263l1.171-0.634l0.546-0.537
	l0.264-0.546l0.264-0.537l0.624,0.186l0.712,0.439l0.273,0.273l0.536-0.185l0.449,0.088l0.273-0.088l0.087-0.897l-0.087-0.625
	l-0.273-0.546l-0.361-0.351l-4.937-0.898l-0.634-0.361l-0.8-0.81l-0.995-0.722l-1.249-0.088l0.088-1.707l-1.805-0.088l-5.483,1.707
	l-0.81,0.449l-0.722,0.722l-0.801,0.537l-2.068,0.186l-0.81,0.361l0.547,0.722l-0.273,0.088h-0.088l-0.098,0.537l-0.546-0.361
	l-0.449-0.088l-0.985-0.175v0.624l0.449,0.449l0.448,0.898l0.186,0.897l-0.264,0.439l-0.624-0.264l-0.634-0.995l-0.615-0.175
	l-0.263,0.263l-1.005,1.347l-0.449,0.449l-1.073,0.537l-0.624,0.088h-0.8v-0.439l0.087-0.088h0.186l0.264-0.087l-0.352-0.186
	l-0.37-0.273l-0.713-0.898l0.995-1.073l1.347-0.898l3.142-1.434l-1.971-1.346l-2.166-0.449l-2.156,0.449l-2.068,1.258l-0.36-0.449
	l-0.176-0.087l-0.907,0.546l-1.161-0.361l-1.259,0.537l-2.429,1.805v0.625l0.624,0.546l0.351,0.176l-0.438,0.088h-0.361l-0.36,0.087
	l-0.361,0.449l-1.707-1.258l-0.547-0.186l-0.536,0.186l-0.088,0.449l-0.088,0.449l-0.458,0.264h-3.229l-1.718,0.263l-4.487,1.434
	l-1.971,1.532l-8.907,0.985l-3.317-0.361l-0.722,0.361l-0.712,1.259h-0.459l-1.347-1.347l-1.971-0.536l-1.98,0.361l-1.521,1.434
	l-1.883-1.883l-16.176-1.435l-1.435-0.458l-5.844-2.781l-5.103-1.083l-1.619-0.897l-0.819-0.186l-0.81,0.186l-0.977,0.897
	l-0.546,0.186l-5.024-1.532l-0.917,0.546l-0.712-1.259l-1.708-0.449l-6.194-0.263l-2.439-0.898l-5.112-3.415l-1.161-0.449
	l-2.976-0.263l-1.073,0.175l-0.361,0.537l-0.176,0.625l-0.546,0.634l-0.712,0.361l-1.532,0.546l-0.722,0.439l-0.439-0.625
	l1.258-1.17l0.897-1.522l-0.185-1.356l-2.156-0.624l-14.38,0.624l-3.678-0.624l-0.819-1.708l-0.537-0.449l-0.361,1.444h-0.439
	l-1.356-2.068l-3.951-4.673l-1.532-1.347l-2.332-1.18l-1.171-0.088l-0.449,0.897l-0.361,1.171l-0.8,0.449h-2.322l0.176,0.263
	l0.185,0.722l0.195,0.361l-0.917,1.073l0.273,0.81l0.449,0.722l-0.351,0.897h-8.273l-1.171,0.537l-1.073,0.81l-1.073,0.449
	l-1.171-0.546l-1.083,0.634l-5.561-0.634l-0.897-0.352l-2.234-1.707l-0.995,0.175l-0.546,0.546l-0.449,0.537l-1.707,0.458
	l-1.883,0.897l-1.083,0.186h-3.688l-3.678,0.722l-0.995-0.273l-1.707-0.985l-0.985-0.185l0.175,0.458l0.186,1.073l0.088,0.439
	h-1.795l-0.81,0.185l-0.712,0.546l-2.615-1.444l-3.688-1.346l-3.59-0.361l-3.951,2.059l-1.883-0.175l-2.966-0.898l-4.303,0.361
	l-1.083-0.361l-7.005,0.273l-4.136,0.897l-0.634,2.332l-0.985,0.722l-0.449,1.346l-0.273,1.62l-0.449,1.62h-0.439l-0.634-1.708
	l0.371-1.346l0.702-1.181l0.546-1.073l-0.098-1.98l-0.8-0.625l-1.269-0.186l-0.8-0.625l-1.171,0.722l-4.4,0.185l-2.692-0.449
	l-1.424-0.537h-1.083l-0.898,0.361l-0.546,0.546l-0.546,0.263l-0.985-0.449v-1.073l0.449-0.263l0.185-0.264l0.176-0.371l0.273-0.439
	l-3.415-1.708l-4.498-6.292l-2.868-2.244l-5.932-3.327l-0.839-0.312l-2.781-0.371l-0.995,0.458l-0.722,0.722l-0.615,0.537
	l-0.907-0.361l-0.625,1.434l-0.897,1.258l-0.625,0.264l0.186-1.62l-1.805-3.415l-0.263-1.356l-1.269,0.644l-0.449,0.088
	l-0.546,0.186l-0.088,0.449v0.439l-0.097,0.263l-0.625,0.273l-0.537,0.088l-0.361-0.449v-1.415l1.619-2.068l0.264-0.546
	l-0.186-0.986l-0.537-0.722l-0.546-0.273l-0.263,0.371l-0.439,1.522l-1.249,1.434l-1.532,1.073l-2.878,0.712l-1.424,0.81
	l-1.268,1.073l-0.985,1.083l0.175,0.361l0.186,0.722l0.185,0.264l-1.795-0.625h-0.907l-0.8,0.546l1.347,2.156l-0.625,0.722
	l-3.59-0.195v-0.614l0.351-0.088l0.186-0.088l0.449-0.449l0.546,0.449l0.264,0.088l0.722-0.546l-0.458-0.722v-0.81l0.361-0.897
	l0.546-0.81l0.361,0.185l0.712,0.176l0.449,0.273v-0.624l-1.073-1.347l-0.537-1.707l-0.819-1.444l-1.971-0.263l-1.434,1.883
	l-1.795,1.629l-1.98,1.161l-2.156,0.634h-2.449l-1.073,0.264l-0.449,0.81l-0.264,1.171l-0.361,1.083l0.185,1.073l1.347,1.073
	l-0.361,0.176l-0.352,0.371l-0.273,0.176v0.625l0.185,0.097l0.722-0.097l-0.81,0.361l-0.81-0.088l-0.625-0.546l-0.263-1.073
	l-10.419,7.99l-2.078,1.073l-1.727-0.253l-0.458,0.176l-1.258-0.176h-0.264l-0.087,1.073l0.351,0.995l0.546,0.81l0.546,0.546
	l-0.908,1.346l-0.81-0.361l-0.361,1.522l-0.264,2.068l-0.546,1.532l3.142-0.088l1.434-0.546l0.81-1.249l0.712,0.439l0.264,0.273
	l-0.537,0.263l-0.186,0.186l-0.244,0.352l4.302-0.712l1.62-0.722l0.361,0.088l0.088,0.722l-0.264,0.615l-0.546,0.468l-0.536,0.176
	l-7.19,0.995l-1.346,1.073l1.161,0.449l1.708,1.883l1.268,0.449l2.42-0.185l1.258,0.185l1.434,0.722l-1.346,0.897l-0.81,0.712
	l-0.361,0.897v1.532l0.546,2.966v1.522l-0.546,1.62l-0.546-1.532l-0.712-0.985l-1.61-1.62l-0.458-1.073l-0.264-1.073l-0.449-0.897
	l-0.995-0.361l-2.068-1.347l-1.434-0.263l-0.624,1.249l0.185,2.332l-0.263,0.897l-0.897,1.073l-1.62-1.424l-0.625-0.995
	l-0.273-1.249l-3.863,0.985l-0.449,0.361l-0.185,0.449l-0.264,0.361l-1.62,0.546l-0.722,0.537l-0.537,0.712l-0.273,0.898
	l-0.624,0.624l-3.776,1.795l-2.419-1.073l-2.693,0.81l-2.517,1.434l-1.98,0.722l-1.346-0.176l-2.79-0.897l-1.259-0.185l-1.258-0.546
	l-2.234-2.332l-0.917-0.537l-0.81,0.186l-0.537,0.449l-0.546,0.722l-2.234,0.624l-3.054,2.068l-2.878,1.259l-0.712,0.088
	l-0.546,0.263l0.624,0.537l0.898,0.449h0.361l1.073,2.156l0.81,0.546l1.522-0.088l-1.249,0.985l-1.883,0.722l-1.883,0.088
	l-1.346-1.181h-0.537l-0.361,1.444l-0.722,1.346l-0.897,1.083l-0.897,0.81l-0.908,0.371l-1.249,0.264h-1.259l-2.692-1.171
	l-2.332,1.259l-3.415,3.239l0.625,1.708l0.995,0.088l2.234-1.171l-0.088,0.897l1.161,0.088l1.62-0.361l1.259-0.615v0.712
	l-1.259,0.186l-0.537,0.176l-0.537,0.263l-0.624,0.537l-0.264,0.449l-0.186,0.546l-0.361,0.537l-1.073,0.897l-0.897,0.264
	l-0.907-0.264l-1.073-0.897l-0.351,1.171l-0.82,0.625l-0.8,0.81l-0.361,1.795l-0.546,0.898h-0.907l-0.625,0.537l0.546,2.341
	l1.073,0.8l0.537,0.546l-0.273,0.897l-0.263,0.537l-0.264,0.722l-0.185,0.81l-0.098,0.634l-1.434,4.039l-0.449,0.897v0.625
	l0.624,0.634l0.722,2.244l0.361,0.264l0.449-0.898l0.712-1.971l0.546-0.81l0.615-0.546l0.819-0.537l0.712,0.088l0.264,1.258
	l0.098,0.264l0.624-0.176l0.449-0.546l-0.449-1.073v-0.625l0.898,0.361l1.073,1.795l0.624,0.449l1.259,0.087l0.537,0.361
	l0.098,0.624l-0.098,0.898l-0.176,0.536l-0.625,0.722l-0.185,0.361l0.088,0.546l0.361,1.249l0.098,0.722l1.346,0.537l0.995,0.625
	l0.537,1.083l-0.449,0.985l-0.546,0.722l-0.625,0.361h-0.888l0.722,1.707l0.352,1.522l0.449,1.259l0.995,0.81l1.356,0.273
	l0.897-0.449l1.62-1.795l-0.263-1.62l1.522-0.273l3.59,0.546l1.883-0.264l1.619-0.722l1.073-1.347l0.264-2.244l1.542,0.81
	l0.185,1.62l-0.458,1.522l-0.449,0.722l-1.708,0.449l-1.073,0.995l-1.805,2.595l-2.068,1.171l-0.175,0.186l-0.81,0.263l-0.537,0.722
	l-0.361,0.624l-0.8,1.171l-0.458,1.98l-0.264,1.98l0.088,1.171l-0.897,1.434l-0.985,2.517l-0.361,2.332l1.073,1.073l1.61,0.722
	l0.361,1.619l0.186,1.795l1.083,1.18l0.985-1.258l0.546-0.537l0.625-0.176l0.536-2.166l0.186-0.537l2.615-0.722l0.8-0.722
	l-0.985-1.259l2.332-1.795l0.995-0.449l-0.361,0.995l0.985,0.81l0.82-0.546l1.522-2.244l-0.732-0.82l0.176-1.17l1.073-2.615
	l0.995,1.346l0.722,1.532l0.897,1.259l1.347,0.546l1.258-0.459l0.995-1.073l0.712-1.522l0.546-1.532h0.449l-0.537,2.156
	l-2.615,5.922l-0.897,1.18l-0.897,0.264l-0.908,0.722l-0.624,1.171l-0.264,1.434l0.098,1.708l0.897,3.317l-0.897,0.722v1.083
	l0.176,1.073l-0.264,0.985l-0.722,0.273l-1.073-0.186l-0.985-0.449l-0.625-0.449l0.995-0.625v-0.888l-0.634-0.81l-0.897-0.264
	l-1.073,0.264l-1.434,0.634l-1.346,0.81l-0.546,0.995l0.546,0.351l2.419,0.449l0.897,0.546l0.546,0.985l0.361,1.805l0.625,1.073
	l1.708,1.073l2.332,0.264l2.244-0.176l1.522-0.449l0.995-0.625l1.805-1.434l1.493-1.005l0.186-0.186l0.263-0.087l0.625-0.088
	l0.722,0.263h0.537l0.625-0.361l-0.546,1.444l-0.985,0.985l-2.341,1.522l-1.249,1.073l-2.692,3.239l-0.537,1.269l-0.352,0.263
	l-2.614-0.634l-0.995,0.195l-0.254,0.273l0.186,0.439l0.185,0.81v3.142l-0.449,0.722l-0.995-1.522h-0.458v1.347l-0.722,2.156
	l-0.264,1.171l1.346-0.439l3.776,0.263l0.81-0.185l0.81-0.81l3.863-1.795l1.424-0.361l1.805-0.722l0.995-1.707l0.81-1.795
	l1.073-0.995l0.624-0.185l0.264,0.088l0.098,0.634v2.966l-0.273,0.81l-0.449,0.458l-1.434,0.985l-1.258,0.546l-2.244,2.156
	l-0.351,0.176l-0.907,0.361l-3.786,2.878l-1.346,1.697l-0.351,0.273l-0.712,0.449l-0.361,0.897l-0.186,0.897l-0.176,0.449
	l-1.883,0.985l-0.361,0.371l0.263,0.625l1.347,0.625l0.361,0.722l-0.537,0.898l-1.346,0.361H42.22l-0.81,0.634l-0.185,1.697
	l1.434,18.693l-0.176,1.356l1.161,0.439l1.17-0.985l1.161-1.346l1.171-0.449l1.434-0.449l1.346-1.073L51,285.629L51.829,284
	l0.722-0.634l1.62-0.81l1.873-0.537l1.434-0.995l0.546-0.985l0.722-2.068l0.615-0.985l1.269-0.897l1.249-0.264l2.615-0.097
	l1.346-0.537l2.429-1.708l1.356-0.537l11.054-1.795l1.161-0.634l1.805-1.708l0.624-0.439l0.537-0.087l1.259-0.088l1.356-0.537
	l2.156-1.522l0.625,0.897l0.624,1.434l-0.185,4.117l0.273,1.532l0.897,0.712l1.171-0.088l1.259-0.624l1.521-0.088l1.347,0.537
	l1.083,1.073l0.536,1.444l-0.185,1.697l-0.712,1.171l-1.17,0.995l-2.068,1.347l-2.068,2.068l-2.771,4.127l-0.712,1.708l-0.098,1.795
	l0.81,1.708l2.517,0.995l0.546,0.712l0.088,1.259l-0.263,2.517l6.205,0.361l3.229-0.897l2.332-2.429l0.722-1.171l0.888-0.897
	l0.995-0.439l1.171,0.175h1.346l0.625-1.249l0.361-1.62l0.351-1.073l1.434-0.546l0.186,2.605l0.449,2.79h2.244l0.449-0.546
	l0.263-0.625l0.361-0.537l0.722-0.264l1.971,0.088l4.4-1.073l1.971-1.073l1.083,0.264l1.971,1.434l1.259,0.634l3.863,0.176
	l-1.073,2.966l0.088,0.897l1.171,0.634l1.258,0.088l1.522-0.175l1.434-0.546l1.073-0.81l0.351-0.712l0.098-0.625l0.186-0.546
	l0.546-0.449h0.537l1.083,0.722l0.712,0.087l0.995,0.361l0.897,1.258l0.712,1.62l0.263,1.532l1.005-0.81l1.708-1.98l0.985-0.624
	l1.083-0.186l2.604,0.088l1.269-0.176l5.103-1.717l2.341-1.434l1.424-2.156l0.186-1.522l-0.449-3.142l0.185-1.356l0.546-0.537
	l1.073-0.81l1.269-0.722l0.985-0.175l2.322,1.444l2.166,1.883l2.244,0.995l2.527-1.083l1.708-1.258l1.61,0.81l1.707,1.356
	l1.98,0.449l4.41-0.361l1.698-1.083l0.458-2.868l2.156,0.351l2.604,4.049l2.156,0.634l5.122-0.186l2.419-0.712l1.005-2.068
	l1.698,0.712l0.995,1.181l0.263,1.522l-0.537,4.137l0.537,0.634l1.269,0.176l1.883,0.625l-0.819,1.805l-1.698,7.815l-0.273,0.897
	l-0.537,0.8l-0.449,0.897l0.176,0.81l0.449,0.81l0.361,0.897l0.186,1.795l0.361,1.883l0.995,1.532l1.971,0.722l0.712-0.176
	l1.083-0.546l0.985-0.634l0.458-0.537l0.537-0.449h0.995l5.844,1.181l3.493,1.249l3.239,2.068l3.054,3.239l0.985,1.434l0.722,0.897
	l-3.415,5.024l-1.883,1.98l-0.449,0.985l0.087,0.712l0.186,0.624V332l-2.703,4.4v0.81l-2.234,0.175l-0.995,0.361l-0.897,0.712h0.185
	v0.546l-0.098,0.722l-0.175,0.537l-0.273,0.088l-0.897-0.186l-0.302,0.078l-2.234,3.678l-2.332,2.332l-2.332,1.805l-4.225,1.795
	l-0.634,0.449l-4.673,0.087l-1.269,0.273l-0.8,0.897l-2.507,3.863l-0.556,1.434l-0.449,0.722l-2.517,2.156l-0.897,1.161
	l-0.273,0.634l0.186,2.332l-0.625,1.708l-2.878,4.224l-0.985,0.995l-1.98,0.176l-4.4-0.351l-1.522,0.722l-0.264,1.795l-0.81,1.258
	l0.186,1.171l0.712,1.073l2.244,2.429l0.897,1.61l1.522,3.863l0.634,1.971l0.614,0.81l1.083,0.263l0.81,0.546l0.615,1.532
	l-0.263,1.161l-1.161,0.361l-0.098,2.332l0.098,0.625l0.264,0.995l-0.098,0.546l-0.176,0.537l-0.098,0.897v1.805l0.186,1.347
	l0.897,3.053l0.546,3.142l0.186,1.62v1.171l-0.546,1.609l-1.62,3.054l-0.449,1.434l0.186,1.61l0.624,1.005l0.81,0.8l0.712,1.259
	l0.361,1.62l-0.185,1.073l-1.708,2.322l-1.346,3.239l0.449,3.054l1.62,2.702l2.419,2.234l-1.239,2.273l-0.624,0.634l-3.054,2.234
	l-0.458,0.546l-0.264,0.722l-0.097,1.522l-0.176,0.546l-1.347,0.898l-1.356,0.097l-1.434-0.097l-1.356,0.195l-3.044,1.961
	l-1.268,0.634l-0.625,0.888l-0.712,2.176l-0.634,1.063l0.634,1.356l0.537,3.142l0.81,1.258l0.897,0.264l1.883,0.263l0.81,0.264
	l0.8,0.712l1.005,1.532l1.61,1.971l2.878,5.209l-1.249,2.098l-0.361,0.995l0.098,0.985l-0.273,0.819l-0.439,2.322l-0.186,0.361
	l-0.722,0.556l-0.176,0.439v0.546l0.264,0.897v0.468l-0.098,0.8l-0.088,1.522l-0.273,0.897l-1.795,2.703l-0.722,0.429l-1.62,0.722
	l-0.537,0.449l-0.537,1.249l0.098,0.995l0.253,0.917l0.098,0.801l-0.263,0.907l-0.82,1.531l-0.361,0.897v0.897l0.186,0.625
	l0.097,0.702l-0.8,1.98l-1.083,0.438l-10.507,1.376l-2.244-0.098l-1.532-0.995l-1.249,0.352l-2.878-0.088l-1.356,0.254l-1.161,0.546
	l-0.995,0.264l-15.463-0.722l0.634,1.531l2.332,6.469l1.259,1.161l2.156,2.878l1.171,1.17l2.429,1.249l0.625,0.819l0.712,2.068
	l1.073,0.907l1.532,0.703l2.966,0.8l0.537,0.917V522l-0.351,2.068l-0.537,1.366l-0.371,1.258v2.068l0.371,1.971l0.537,1.073
	l1.356,1.073l3.493,4.303l-0.995,1.717l-0.088,1.883l0.537,1.795l1.005,1.444l1.786,0.985l1.99,0.546l1.697,0.811l0.908,1.707
	l-0.186,0.917l-0.81,1.785l0.087,0.81l0.722,0.723l1.073,0.536l1.073,0.195l0.907-0.361l1.697-1.073l1.883-0.185l1.893,0.556
	l1.62,1.063l1.17,1.063l0.985,1.619l0.449,1.815l-0.449,1.619l0.81,0.614l0.088,0.801l-0.352,0.897l-0.722,0.907l-2.42,4.673
	l-1.629,2.225l-1.522,1.259l1.005,1.805l-0.371,1.434l0.097,1.259l-0.546,0.361l-0.897,0.712l-0.897,0.907l-1.171,0.546
	l-3.327,0.713l-0.712,0.614l-0.361,0.897l-0.995,1.171l-1.161,0.995l-1.073,0.459l-4.225,3.414l-0.098,0.361l-0.624,1.171
	l-0.273,0.614l-0.449,3.142l-0.186,2.068v0.907l0.098,0.712l0.351,0.615l0.459,0.263l0.449,0.352l0.185,0.722L157.507,598
	l-2.966,4.312l-1.259,4.585l-0.722,1.073l0.81,1.161l-0.088,1.073l-0.722,0.985l-0.995,1.073l0.995,0.565l2.068,1.522l7.551,9.688
	l0.263,0.546l0.439,1.181l0.273,0.518l0.458,0.565l1.249,0.897l0.361,0.449l2.878,7.375l1.707,1.513h1.073l1.795-0.352l1.717-0.8
	l0.897-1.259l0.361,0.078h0.185l1.883-0.546l1.98-0.176l1.161,0.897l-0.722,2.634l-0.537,1.337l-0.995,3.054l-1.347,2.78
	l-0.634,2.693l-0.615,1.161l-0.634,2.165l-1.785,0.176l-4.049-1.609l-1.259-0.088l-0.624,0.712l-0.722,1.883l-0.712,0.985
	l-0.537,0.371l-0.917,0.264l-0.888,0.438l-0.907-0.098l-0.897-0.244l-0.897-0.097l-0.81,0.536l-2.244,0.459l-0.449,0.536v0.712
	l0.186,0.907v0.897l-0.361,1.62l-1.522,4.234l-0.819,3.054l-1.971,3.502l-6.556,5.493l-1.269,1.873l-0.985,2.692l-0.625,4.303
	l-0.361,1.355l-0.449,0.703l-1.883,2.078l-0.712,0.438l0.186,0.557l-0.098,0.448l-0.176,0.361l-0.097,0.448l-0.722,0.907
	l-0.263,0.352v0.995l0.087,0.098h0.264l0.361,1.259l0.098,0.624l0.186,0.537l0.624,1.005l0.537,0.546l1.259,0.995l0.361,0.546
	l0.546,1.62l0.449,2.166l0.186,1.961l-0.215,0.956l1.424,2.976l0.546,7.112l0.722,2.966l-0.449,1.336l0.361,1.971l1.073,3.961
	l1.161,0.615l1.269,0.536l1.346-0.185l1.424-1.259l1.083-0.449l17.337-0.448l-0.995-0.449l-2.068-0.272l-0.995-0.537l5.658,0.537
	l2.342,0.722l6.292,3.054l0.985-0.107l-0.088-0.995l-0.712-1.609l-1.532-2.439v-0.498h2.244l1.971-1.443l3.6-4.039l-0.81,1.629
	l-2.517,3.766l-0.897,0.713l-0.449,1.083l0.449,2.331l1.258,1.961l1.424,0.722l1.434,0.625l2.976,2.419l1.259,0.547l1.707,0.458
	l1.883,0.985l17.522,12.674l2.068,2.166l1.619,2.78l2.332,5.932l1.971,2.604h2.517l0.458-0.985l-0.458-5.404l0.546-1.873
	l1.346-1.073l3.063-1.171l1.346,1.171h1.795l1.795-0.723l1.356-1.005l-2.059,2.703l-5.854-0.459l-2.419,2.068l-0.361,2.059
	l0.624,3.707l-0.712,2.059l-0.995,0.8l-2.693,1.005l-1.346,0.615l-1.356,1.434l-0.361,1.62l0.449,1.609l0.995,1.708l0.712,1.727
	l0.907,3.492l1.073,1.073l1.268,0.342l4.839,0.361l0.722,0.458l2.869,2.615l0.634,1.707L231.4,784l0.546,1.356l1.259,0.176
	l1.434-0.439l0.546,0.098l-1.532,1.707l-0.8,1.151l-0.546,0.557L231.4,788.8l-1.073-1.277l-0.546-0.889l0.361-0.712l-0.625-0.819
	l-2.234-2.059l-0.624-0.098l-0.908,0.449l0.546,0.81l1.522,1.355l1.62,3.054l1.971,2.684l1.708,3.863l1.629,2.878l0.615,1.531
	l0.458,1.61l0.176,1.434l0.458,1.259l3.493,2.605l1.61,2.692l1.444,2.976l1.883,2.42l2.966,1.062l3.142-0.614h1.532l1.346,0.907
	l4.673,4.596l1.532,2.233l1.073,0.995l3.054,0.897l1.424,0.917l1.532,0.547l1.707-0.634l1.259,1.005l2.976,1.727l2.605,2.156
	l0.897-0.195l1.083-0.625l8.439-2.517l0.175-0.624l0.449-0.439l0.458-0.624l0.273-0.995l-0.195-0.723l-0.352-0.897l-0.195-0.81
	l0.371-0.614l-0.458-1.161l-0.098-1.278l0.371-1.063l0.625-0.712l0.263-0.907h1.347l1.717,0.624l1.161,0.81l0.537,1.435h1.444
	l0.351-4.234l0.361-0.907l3.239-4.849l-0.098-0.624l-0.263-0.801l-0.088-0.624l1.161-0.459l0.546-0.341l0.536-0.469l0.361-0.438
	l0.624-1.366l1.161-3.22l1.356-1.355l1.98-3.493l0.888-1.269l0.917-0.536l1.151-0.361l2.614-0.36l0.897-0.361l3.337-2.059
	l4.839-1.259l5.044-2.692l0.8-0.614l0.722-0.195l1.62,0.088l8.888,1.619l2.976,0.088l3.054-0.614l1.531-0.625l0.615-0.36
	l0.546-0.547l1.356-2.878l8.624-5.405l0.547-0.8l0.272-1.425l0.703-1.258l1.005-1.063l0.438-0.722l1.98-3.503l0.897-0.8l1.259-0.361
	l12.761,0.995l1.98-0.264l8.273-2.78l1.805-0.195l6.995,0.82l7.19-1.98l3.142,0.263l5.482,1.806l3.151-0.264l4.576-1.259
	l0.722,0.361l0.81,0.692l10.693,3.054l2.614,0.107l3.132-1.181l1.435-1.063l0.994-0.995l1.073-0.702l7.288-0.917l18.322,1.181
	l2.692-0.381l1.347,0.117l1.531,0.888l1.971,2.624l0.723,0.439l0.634-0.186l0.614-0.8l0.615-0.205l1.355,0.634l1.435,1.073
	l1.434,0.703l1.435-0.615l1.259,0.459l1.98-0.371l1.805-0.81l0.8-0.8l0.361-0.273l1.795-1.863l1.435-3.951l1.883-2.878l1.171-0.635
	l6.106-0.985l0.897,0.186l1.98,0.8l0.625,0.205l1.434-0.361l2.332-1.258l1.356-0.254l1.619,0.176l1.522,0.624l2.517,1.522
	l1.883,2.068l1.717,2.429l1.98,2.078l2.674,0.8l1.512-0.195l1.444-0.536l1.073-0.917l0.712-1.707l0.614-0.254l0.811-0.264
	l0.624-0.458l0.361-0.713l0.341-1.707l0.264-0.624l1.181-1.259l1.161-0.264l0.81-1.073l0.712-3.688l0.995-1.161l2.518-1.717
	l0.917-0.897l0.438-0.195l1.62-0.088l0.546-0.186l0.361-0.458l0.098-0.811l-0.098-0.712l-0.264-0.722l-0.186-0.8l0.088-1.073
	l1.531-2.508l2.156-5.492l0.361-2.527l0.888-2.429l0.547-3.142l1.258-3.581l1.815-2.517l4.233-4.234l2.156-3.054l1.005-1.814
	l0.352-1.61l0.614-0.81l3.698-2.614l3.697-1.619l1.063-0.195l0.614-0.264l1.435-1.259l0.614-0.438h0.547l0.36,0.264l0.449,0.097
	l0.614-0.458l0.098-0.624l0.722-2.976l0.186-0.449l0.254-0.449l0.556-0.536l0.537-0.458l0.36-0.186l1.425-0.273l1.181-0.8
	l3.122-3.142l1.18-0.712l1.259-0.449l3.22-0.264l3.951-1.063h0.946l2.615,0.801l0.438,0.458l0.361,0.439l0.36,0.194l3.581,1.073
	l1.619,0.186l-0.985-0.722l-0.205-0.897l0.381-0.907l0.8-0.713l1.073-0.438l1.249-0.195l4.595,0.088l2.332,0.449l2.868,1.375
	l0.634,0.439l1.708-1.171l0.995-0.439l0.897-0.205h2.702l2.059-1.062l1.161-0.264l1.98-0.722l0.712-0.439l0.615,0.439h0.624
	l0.624-0.342l0.547-0.635l0.985-0.81l0.273-1.073l-0.459-1.073l-1.347-0.702l-0.624,1.063l-1.425-0.186l-1.619-0.81l-2.342-1.521
	l-0.702-0.897l-2.342-4.234l-0.263-1.698l0.634-1.258l1.6-0.469l0.928-0.81l1.697-4.741l1.98,2.419l0.351-0.907l-0.351-3.688
	l0.186-1.425l2.878-7.18l0.712-1.171l1.347-1.425l1.073-0.722l0.614-0.81l0.205-1.708l-0.557-6.478l0.195-3.863l0.264-1.435
	l0.536-1.151l0.723-1.521l0.985-1.435l1.268-1.073l1.63-0.448l2.604,0.185l1.259-0.351l0.8-1.161l-0.186-7.736l0.615-3.581
	l2.536,0.186l0.264-1.356l0.702-0.712l0.995-0.264l2.342-0.097l0.458-0.264v-0.907l0.254-1.796l0.81-1.365l2.615-2.878l0.536-0.361
	l0.459-0.985l1.063-0.81l6.839-2.878l2.233-1.61l1.815-0.712l3.238-0.722h2.976l1.054-0.439l1.073-1.181l0.449-1.258l-0.088-1.259
	v-1.347l0.8-1.531l1.005-0.8l0.985-0.361h2.176l1.337-0.264l0.995-0.458l1.005-0.254l1.434,0.361l-0.556-1.366l0.731-1.425
	l0.702-0.624l0.819-0.439l0.889-1.005l0.556-0.253l1.356-0.107l0.263-0.352l0.186-0.186l0.81-1.883l0.985-0.985l1.083-0.634
	l1.161-0.254l1.356-0.098l0.546-0.546v-1.425l-0.458-1.181l-0.703,0.186l-1.082-1.521l-0.537-0.615l-0.819-0.36l0.722-0.557
	l0.254-0.176l-2.234-2.517l-3.054-1.717l-3.414-0.995l-3.239-0.371l-1.971-0.526l-1.532-1.171l-2.722-2.976l-2.683-2.176
	l-1.073-1.355l-2.692-4.674l-2.684-3.688l-1.717-4.488l-2.156-4.302l-0.263-1.63l0.185-1.005l1.005-0.897l0.264-0.995l-0.186-0.614
	l-0.927-1.717l-3.756-10.059l-1.814-6.664l-0.557-3.932l-0.078-4.137l0.439-3.795l0.722-1.609l2.244-3.239l0.536-1.249l0.352-1.531
	l0.907-1.619l0.995-1.347l1.717-1.893l0.811-1.151l0.448-1.522l0.195-2.243l0.352-0.985l7.365-12.322l4.498-5.044l1.883-2.78
	l3.054-6.556l1.883-2.693l4.497-2.78l1.98-2.078l5.2-8.634l3.415-3.581l2.438-3.424l0.897-1.005l1.874-1.6l0.81-1.005l4.858-9.688
	l1.883-1.883l0.449-2.439l0.995-1.512l1.248-1.366l1.278-1.795l3.415-8.273l1.424-1.434l1.171-1.258l1.425-0.995l5.932-1.883
	l2.156-0.185l1.521,0.81l-3.424,3.229l-2.332,1.073l-2.615-0.439l1.259,2.234l1.814-0.088l1.874-1.346l1.512-1.532l3.502-4.585
	l1.971-1.795l4.586-1.356l1.181-0.712l0.731-1.259l0.459-0.351l0.438-0.449l0.195-0.722l-0.195-0.546l-0.438-0.263l-0.557-0.186
	l-0.448-0.361l-0.985-1.073l-1.883-1.522l-1.718-2.156l-0.819-0.81l-0.985-0.546l-1.171-0.088l0.995,0.712l0.264,0.722l-0.342,0.449
	h-0.907l-2.078-0.81l-1.863-1.073l1.356-2.702l6.468-6.283l3.951-5.209l8.078-7.99l2.332-1.717l2.673-1.258l2.976-0.537l3.142-0.098
	l0.547,0.186l1.707,1.073l0.722-0.351l0.361-0.546l0.264-0.712l1.258-2.254l0.547-0.449l5.024-1.073l17.99-6.731l6.117-0.449
	l13.57-3.678l2.42,0.088l0.712-0.186l1.434-0.897l4.752-1.268l4.858-0.439l2.858-0.81l5.044-2.79l2.332-2.156l2.067-2.868
	l3.503-6.107l1.883-2.615l2.059-1.61l5.317-2.253L851.332,326.858z M466.766,889.775l-1.346,1.444l0.272,2.438l1.425,1.601
	l2.156-0.8l-0.615-1.005L466.766,889.775z M296.678,839.366l-1.161-0.897l-1.62-0.898l-1.356-0.107l-0.985,0.205l0.625,1.961
	l0.81,1.806l1.073,1.619l1.61,1.512l0.361-1.512l3.151-2.527l0.614-1.873l-1.883,1.005L296.678,839.366z"/>
</svg>
